<?xml version="1.0" encoding="UTF-8" standalone="no"?>
<!DOCTYPE svg PUBLIC "-//W3C//DTD SVG 1.1//EN" "http://www.w3.org/Graphics/SVG/1.1/DTD/svg11.dtd">
<svg width="100%" height="100%" viewBox="0 0 426 383" version="1.1" xmlns="http://www.w3.org/2000/svg" xmlns:xlink="http://www.w3.org/1999/xlink" xml:space="preserve" xmlns:serif="http://www.serif.com/" style="fill-rule:evenodd;clip-rule:evenodd;stroke-linecap:round;stroke-linejoin:round;stroke-miterlimit:1.5;">
    <g transform="matrix(1,0,0,1,-31.195,-260.873)">
        <g transform="matrix(0.786662,0,0,0.786662,-4.35646,165.215)">
            <g transform="matrix(1,0,0,1,-76.7028,0)">
                <g transform="matrix(0.45777,-0.0198095,0.0084332,1.0753,168.42,-22.4843)">
                    <path d="M443.743,494.217L442.122,582.203" style="fill:none;stroke:#ffae00;stroke-width:31.16px;"/>
                </g>
                <g transform="matrix(0.856846,0,0,1,-7.09641,20.5679)">
                    <path d="M417.597,574.232L475.951,574.232" style="fill:none;stroke:#ffae00;stroke-width:27.3px;"/>
                </g>
            </g>
            <g transform="matrix(1,0,0,1.17661,-1.49061,-104.377)">
                <g transform="matrix(0.45777,-0.0198095,0.0084332,1.0753,168.42,-22.4843)">
                    <path d="M443.743,494.217L442.122,582.203" style="fill:none;stroke:#ffae00;stroke-width:27.1px;"/>
                </g>
                <g transform="matrix(0.856846,0,0,1,-7.09641,20.5679)">
                    <path d="M417.597,574.232L475.951,574.232" style="fill:none;stroke:#ffae00;stroke-width:24.7px;"/>
                </g>
            </g>
            <g transform="matrix(0.979957,0.199208,-0.199208,0.979957,79.5023,-59.3279)">
                <path d="M269.833,276.393C264.752,427.335 156.452,537.586 84.919,564.443C166.063,592.752 257.002,596.986 310.419,509.68C310.602,509.381 269.833,276.393 269.833,276.393Z" style="fill:#b71f1f;"/>
                <path d="M274.842,275.517C274.393,272.951 272.077,271.139 269.478,271.321C266.88,271.503 264.839,273.619 264.751,276.222C259.754,424.677 153.486,533.269 83.132,559.683C81.128,560.436 79.81,562.363 79.835,564.503C79.86,566.644 81.223,568.539 83.244,569.244C166.609,598.327 259.878,602.029 314.756,512.334C314.837,512.203 315.732,511.11 315.456,508.956C315.398,508.501 315.007,506.138 314.34,502.221C307.868,464.256 274.842,275.517 274.842,275.517ZM269.833,276.393C264.752,427.335 156.452,537.586 84.919,564.443C166.063,592.752 257.002,596.986 310.419,509.68C310.602,509.381 269.833,276.393 269.833,276.393Z" style="fill:#b71f1f;"/>
            </g>
            <g transform="matrix(0.997511,0.070511,-0.070511,0.997511,29.7279,-8.9102)">
                <path d="M482.361,239.306L479.468,164.366L559.734,205.42L482.361,239.306Z" style="fill:#ffae00;stroke:#ffae00;stroke-width:25.42px;"/>
            </g>
            <g transform="matrix(0.997511,0.070511,-0.070511,0.997511,33.0971,-18.7579)">
                <path d="M175.896,493.875C193.995,467.728 244.145,423.299 263.21,353.005C278.859,295.306 273.55,244.037 290.012,200.697C311.408,144.37 350.881,116.404 387.425,116.734C458.665,117.378 487.808,150.738 484.726,203.281C481.773,253.617 474.467,306.092 474.024,362.659C473.598,417.099 436.666,469.108 364.718,496.831C313.536,516.552 246.292,526.906 175.896,493.875Z" style="fill:#df5959;stroke:#df5959;stroke-width:6.36px;"/>
            </g>
            <g transform="matrix(1.00844,0.0661528,-0.0647203,0.986601,29.4447,-24.5579)">
                <ellipse cx="406.496" cy="208.964" rx="29.685" ry="30.342" style="fill:#fff;"/>
            </g>
            <g transform="matrix(1.27119,0,0,1.27119,5.5379,-210.021)">
                <path d="M313.776,323.27C318.968,307.266 345.341,307.03 347.918,327.03" style="fill:none;stroke:#fff;stroke-width:12px;"/>
            </g>
            <g transform="matrix(0.99872,-0.0505885,0.0505885,0.99872,-29.5035,27.1095)">
                <path d="M125.106,447.01C101.541,437.481 201.211,420.558 220.559,348.152C230.338,311.558 255.857,241.506 321.641,243.329C385.654,245.102 407.697,295.754 404.618,336.026C397.133,433.91 237.833,492.594 125.106,447.01Z" style="fill:#b71f1f;stroke:#b71f1f;stroke-width:6.36px;"/>
            </g>
        </g>
    </g>
</svg>
